<svg width="219" height="47" viewBox="0 0 219 47" fill="none" xmlns="http://www.w3.org/2000/svg">
<path d="M53.7346 37.2603H47.4867V7.23743H58.5494L69.8575 31.7892H71.2579L70.4348 32.5283V7.23743H76.7662V37.2603H65.6242L54.3126 12.7085H52.9123L53.7349 11.9655L53.7346 37.2603ZM93.4699 38.0414C91.5504 38.0414 89.8574 37.7119 88.391 37.0529C86.9245 36.3963 85.7045 35.512 84.731 34.4001C83.7575 33.291 83.0168 32.0434 82.5088 30.6573C82.0005 29.2738 81.7464 27.8552 81.7464 26.4014V25.5787C81.7464 24.0721 82.0005 22.6257 82.5088 21.2396C83.0171 19.8561 83.7503 18.6161 84.7085 17.5194C85.6693 16.4225 86.8692 15.5521 88.3081 14.9082C89.7471 14.2643 91.3847 13.9423 93.221 13.9423C95.6355 13.9423 97.6716 14.483 99.3292 15.5644C100.989 16.6483 102.257 18.0609 103.133 19.8019C104.01 21.5428 104.449 23.4408 104.449 25.4959V27.7181H84.5047V23.9746H100.461L98.3217 25.7028C98.3217 24.3595 98.1293 23.2075 97.7445 22.2467C97.3622 21.2883 96.7938 20.555 96.0392 20.047C95.2845 19.5413 94.345 19.2885 93.2206 19.2885C92.071 19.2885 91.0988 19.5488 90.304 20.0696C89.5066 20.5903 88.9029 21.3513 88.4929 22.3525C88.0806 23.3509 87.8744 24.5771 87.8744 26.0311C87.8744 27.3744 88.0667 28.5465 88.4513 29.5475C88.8358 30.5485 89.4395 31.3234 90.2624 31.8721C91.0852 32.4208 92.1543 32.6949 93.4695 32.6944C94.6746 32.6944 95.662 32.4618 96.4316 31.9966C97.1987 31.5285 97.7194 30.9524 97.9938 30.2683H104.039C103.709 31.775 103.065 33.1183 102.106 34.2982C101.145 35.4778 99.9392 36.3958 98.4878 37.0522C97.034 37.7114 95.3614 38.0414 93.4699 38.0414ZM112.837 37.2599H106.174L113.165 25.1672L112.999 26.1972L106.419 14.723H113.535L117.606 22.3712H118.266L122.089 14.723H128.793L122.5 26.2797L122.666 25.4162L130.069 37.2599H122.912L118.059 29.0757H117.402L112.837 37.2599ZM141.747 46.2248C140.65 46.2248 139.527 46.1833 138.377 46.1003C137.225 46.0199 136.169 45.9105 135.208 45.772V40.2224C136.169 40.358 137.232 40.4737 138.396 40.5694C139.561 40.6651 140.624 40.7129 141.584 40.7129C143.365 40.7129 144.812 40.5079 145.923 40.0979C147.033 39.6853 147.848 39.0614 148.369 38.2261C148.889 37.3908 149.15 36.3143 149.15 34.9964V30.5141L150.346 27.8842C150.29 29.8836 149.899 31.5964 149.172 33.0227C148.445 34.449 147.438 35.5394 146.15 36.294C144.859 37.0461 143.324 37.4221 141.543 37.4221C140.009 37.4221 138.618 37.1418 137.37 36.5811C136.122 36.0202 135.06 35.2316 134.182 34.2153C133.304 33.2014 132.632 32.0154 132.167 30.6573C131.699 29.3016 131.465 27.8289 131.465 26.2392V25.2921C131.465 23.7024 131.713 22.2221 132.208 20.851C132.701 19.48 133.413 18.2865 134.344 17.2704C135.277 16.2565 136.388 15.4691 137.675 14.9082C138.966 14.3449 140.392 14.0633 141.954 14.0633C143.763 14.0633 145.332 14.4607 146.663 15.2555C147.994 16.0503 149.043 17.2163 149.81 18.7533C150.577 20.2877 150.988 22.1377 151.044 24.3033L150.138 24.5522V14.7234H155.36V34.5849C155.36 37.3544 154.867 39.5895 153.881 41.2901C152.895 42.9908 151.394 44.2384 149.376 45.0329C147.361 45.8278 144.818 46.2248 141.747 46.2248ZM143.599 31.8725C144.613 31.8725 145.531 31.6461 146.354 31.1933C147.176 30.7405 147.828 30.089 148.308 29.2387C148.789 28.3881 149.029 27.3605 149.029 26.156V24.9638C149.029 23.7838 148.775 22.7889 148.267 21.9791C147.758 21.1718 147.093 20.5555 146.271 20.1302C145.449 19.705 144.572 19.4923 143.641 19.4923C142.544 19.4923 141.57 19.7528 140.72 20.2738C139.87 20.7948 139.213 21.5217 138.747 22.4544C138.279 23.3854 138.045 24.4822 138.045 25.7448C138.045 27.0326 138.286 28.1357 138.766 29.0539C139.247 29.9722 139.904 30.6714 140.739 31.1517C141.577 31.6322 142.53 31.8725 143.599 31.8725ZM171.4 38.0417C169.481 38.0417 167.788 37.7121 166.321 37.0529C164.855 36.3963 163.635 35.512 162.661 34.4001C161.688 33.291 160.947 32.0434 160.439 30.6573C159.933 29.2738 159.68 27.8552 159.68 26.4014V25.5787C159.68 24.0721 159.933 22.6257 160.439 21.2396C160.947 19.8561 161.682 18.6161 162.642 17.5194C163.601 16.4225 164.799 15.5521 166.238 14.9082C167.679 14.2643 169.318 13.9423 171.155 13.9423C173.567 13.9423 175.603 14.483 177.263 15.5644C178.921 16.6483 180.189 18.0609 181.066 19.8019C181.944 21.543 182.383 23.441 182.383 25.4959V27.7181H162.435V23.9746H178.391L176.256 25.7028C176.256 24.3595 176.063 23.2075 175.679 22.2467C175.294 21.2883 174.725 20.555 173.973 20.047C173.218 19.5413 172.279 19.2885 171.154 19.2885C170.003 19.2885 169.029 19.5488 168.234 20.0696C167.439 20.5903 166.835 21.3513 166.423 22.3525C166.013 23.3509 165.808 24.5771 165.808 26.0311C165.808 27.3744 166.001 28.5465 166.386 29.5475C166.768 30.5485 167.37 31.3234 168.193 31.8721C169.015 32.4208 170.084 32.6949 171.4 32.6944C172.607 32.6944 173.595 32.4618 174.362 31.9966C175.129 31.5285 175.65 30.9524 175.924 30.2683H181.972C181.643 31.775 180.998 33.1183 180.036 34.2982C179.078 35.4778 177.872 36.3958 176.418 37.0522C174.964 37.7114 173.291 38.0417 171.4 38.0417ZM193.322 37.263H186.741V14.7269H191.963V24.39H191.594C191.594 22.0883 191.89 20.169 192.481 18.6323C193.069 17.0979 193.967 15.947 195.175 15.1797C196.379 14.41 197.846 14.0252 199.574 14.0252H199.861C202.494 14.0252 204.503 14.8829 205.886 16.5983C207.27 18.3114 207.962 20.9085 207.962 24.3896V37.2638H201.381V24.0197C201.381 22.8123 201.025 21.825 200.313 21.058C199.602 20.2909 198.642 19.9071 197.435 19.9066C196.202 19.9066 195.208 20.2979 194.454 21.0805C193.699 21.8603 193.322 22.8815 193.322 24.1442V37.263ZM22.2464 30.9265C19.5315 30.9283 16.8489 30.3366 14.3867 29.1927C11.9245 28.0488 9.74217 26.3804 7.99253 24.3044C7.95699 24.2623 7.9375 24.209 7.9375 24.1539C7.9375 24.0988 7.95699 24.0455 7.99253 24.0034C9.48849 22.2303 11.3017 20.7516 13.3395 19.6429C13.3938 19.6132 13.4578 19.6064 13.5171 19.624C13.5765 19.6415 13.6265 19.6818 13.6561 19.7362C13.6857 19.7906 13.6925 19.8545 13.675 19.9139C13.6575 19.9732 13.6171 20.0232 13.5628 20.0528C11.6344 21.1022 9.91173 22.4917 8.47798 24.1543C10.1843 26.1339 12.2977 27.722 14.6738 28.8101C17.05 29.8983 19.6329 30.461 22.2464 30.4597C24.8596 30.4607 27.4423 29.898 29.8182 28.8098C32.194 27.7216 34.3072 26.1337 36.0133 24.1543C34.3068 22.1751 32.1935 20.5871 29.8176 19.4989C27.4417 18.4106 24.8589 17.8475 22.2456 17.8481C20.4952 17.8481 18.765 18.0963 17.1025 18.5864C17.0431 18.6039 16.9791 18.5971 16.9247 18.5675C16.8703 18.5379 16.8299 18.4879 16.8123 18.4284C16.7948 18.369 16.8016 18.3051 16.8312 18.2506C16.8608 18.1962 16.9108 18.1558 16.9703 18.1383C18.6832 17.6351 20.4595 17.3802 22.2449 17.3813C24.9595 17.3806 27.6415 17.9729 30.1034 19.1167C32.5653 20.2605 34.7477 21.9283 36.498 24.0034C36.5335 24.0455 36.553 24.0988 36.553 24.1539C36.553 24.209 36.5335 24.2623 36.498 24.3044C34.7481 26.3798 32.566 28.0478 30.1041 29.1916C27.6423 30.3355 24.961 30.9276 22.2464 30.9265Z" fill="#6230A3"/>
<path d="M21.3184 29.6558C17.5717 29.6558 14.5244 26.6078 14.5244 22.8611C14.5285 21.4755 14.9544 20.124 15.7455 18.9864C16.5365 17.8488 17.6551 16.979 18.9526 16.4927C18.9816 16.4807 19.0127 16.4746 19.044 16.4749C19.0754 16.4752 19.1064 16.4818 19.1351 16.4944C19.1639 16.5069 19.1898 16.5251 19.2114 16.5479C19.2329 16.5707 19.2497 16.5976 19.2606 16.627C19.2715 16.6564 19.2764 16.6877 19.275 16.719C19.2736 16.7503 19.2658 16.781 19.2522 16.8093C19.2387 16.8376 19.2196 16.8628 19.196 16.8836C19.1725 16.9043 19.145 16.92 19.1152 16.9299C17.907 17.383 16.8653 18.1932 16.1286 19.2526C15.392 20.3121 14.9953 21.5707 14.9912 22.8611C14.9912 26.3503 17.8292 29.1891 21.3184 29.1891C24.806 29.1891 27.6433 26.3503 27.6433 22.8611C27.6433 19.3735 24.806 16.5362 21.3184 16.5362C21.2565 16.5362 21.1971 16.5116 21.1534 16.4679C21.1096 16.4241 21.085 16.3647 21.085 16.3028C21.085 16.2409 21.1096 16.1816 21.1534 16.1378C21.1971 16.094 21.2565 16.0695 21.3184 16.0695C25.0635 16.0695 28.11 19.116 28.11 22.8611C28.11 26.6078 25.0635 29.6558 21.3184 29.6558Z" fill="#6230A3"/>
<path d="M21.3185 27.8709C21.2864 27.8709 21.2546 27.8643 21.2252 27.8515C21.1957 27.8388 21.1692 27.8201 21.1473 27.7966C20.8549 27.4865 20.5563 27.1823 20.2519 26.884C18.8546 25.4953 17.2715 23.9215 17.2715 22.0777C17.2746 19.8442 19.0849 18.0346 21.3185 18.0331C23.5512 18.0358 25.3604 19.845 25.3631 22.0777C25.3631 23.92 23.7815 25.493 22.3866 26.8809C22.0645 27.2014 21.7603 27.504 21.4896 27.7966C21.4678 27.8201 21.4413 27.8389 21.4118 27.8518C21.3824 27.8646 21.3506 27.8709 21.3185 27.8709ZM21.3185 18.4999C20.3695 18.5005 19.4596 18.8776 18.7884 19.5483C18.1172 20.2191 17.7395 21.1288 17.7383 22.0777C17.7383 23.727 19.2483 25.2285 20.5809 26.5534C20.8302 26.7982 21.076 27.0464 21.3185 27.2979C21.5487 27.0567 21.7977 26.8085 22.0575 26.5502C23.3879 25.2261 24.8963 23.7262 24.8963 22.0769C24.8949 21.1284 24.5173 20.2192 23.8465 19.5486C23.1756 18.878 22.2662 18.5009 21.3177 18.4999" fill="#6230A3"/>
<path d="M21.3195 24.191C20.7309 24.1904 20.1666 23.9563 19.7503 23.5402C19.3341 23.124 19.0999 22.5597 19.0992 21.9711C19.1002 21.3829 19.3346 20.819 19.7508 20.4034C20.1671 19.9877 20.7312 19.7541 21.3195 19.7539C21.9072 19.7549 22.4706 19.9889 22.8862 20.4045C23.3018 20.82 23.5357 21.3834 23.5367 21.9711C23.5365 22.5594 23.3029 23.1235 22.8873 23.5398C22.4716 23.9561 21.9078 24.1904 21.3195 24.1914M21.3195 20.2199C20.8549 20.2201 20.4094 20.4046 20.0806 20.7329C19.7519 21.0612 19.5668 21.5065 19.566 21.9711C19.5662 22.4361 19.751 22.882 20.0798 23.2108C20.4086 23.5396 20.8545 23.7244 21.3195 23.7246C21.7732 23.7081 22.2028 23.5162 22.5179 23.1894C22.833 22.8626 23.0091 22.4263 23.0091 21.9723C23.0091 21.5183 22.833 21.082 22.5179 20.7552C22.2028 20.4283 21.7732 20.2365 21.3195 20.2199ZM8.45506 21.5993C8.39316 21.5993 8.3338 21.5746 8.29003 21.5309C8.24626 21.4871 8.22168 21.4277 8.22168 21.3658V11.1784C8.22168 11.1165 8.24626 11.0571 8.29003 11.0134C8.3338 10.9696 8.39316 10.945 8.45506 10.945C8.51696 10.945 8.57634 10.9696 8.62011 11.0134C8.66388 11.0571 8.68846 11.1165 8.68846 11.1784V21.3643C8.68846 21.4262 8.66388 21.4856 8.62011 21.5293C8.57634 21.5731 8.51696 21.5977 8.45506 21.5977M33.9677 34.7889C33.9058 34.7889 33.8464 34.7643 33.8026 34.7205C33.7589 34.6767 33.7343 34.6174 33.7343 34.5555V24.3696C33.7343 24.3077 33.7589 24.2483 33.8026 24.2045C33.8464 24.1608 33.9058 24.1362 33.9677 24.1362C34.0296 24.1362 34.0889 24.1608 34.1327 24.2045C34.1765 24.2483 34.2011 24.3077 34.2011 24.3696V34.5563C34.2011 34.5869 34.195 34.6173 34.1833 34.6456C34.1716 34.6739 34.1544 34.6996 34.1327 34.7213C34.111 34.743 34.0853 34.7602 34.057 34.7719C34.0287 34.7836 33.9983 34.7896 33.9677 34.7896M13.2722 14.5485C12.9123 14.5338 12.5719 14.3805 12.3224 14.1205C12.0729 13.8606 11.9336 13.5143 11.9336 13.154C11.9336 12.7938 12.0729 12.4474 12.3224 12.1875C12.5719 11.9276 12.9123 11.7743 13.2722 11.7595C13.6322 11.7743 13.9726 11.9276 14.222 12.1875C14.4715 12.4474 14.6108 12.7938 14.6108 13.154C14.6108 13.5143 14.4715 13.8606 14.222 14.1205C13.9726 14.3805 13.6322 14.5338 13.2722 14.5485ZM13.2722 12.2255C13.0261 12.2255 12.79 12.3233 12.616 12.4974C12.4419 12.6714 12.3441 12.9075 12.3441 13.1536C12.3441 13.3998 12.4419 13.6359 12.616 13.8099C12.79 13.984 13.0261 14.0818 13.2722 14.0818C13.5136 14.0748 13.7428 13.974 13.9111 13.8007C14.0793 13.6275 14.1735 13.3955 14.1735 13.154C14.1735 12.9125 14.0793 12.6805 13.9111 12.5073C13.7428 12.3341 13.5136 12.2333 13.2722 12.2263M29.4438 32.9638C29.074 32.9636 28.7193 32.8167 28.4577 32.5553C28.196 32.2939 28.0488 31.9395 28.0481 31.5696C28.049 31.2 28.1963 30.8457 28.458 30.5845C28.7196 30.3233 29.0741 30.1765 29.4438 30.1763C29.8077 30.1849 30.1539 30.3355 30.4082 30.596C30.6626 30.8564 30.805 31.206 30.805 31.57C30.805 31.9341 30.6626 32.2837 30.4082 32.5441C30.1539 32.8046 29.8077 32.9552 29.4438 32.9638ZM29.4438 30.6431C29.1979 30.6433 28.9621 30.7409 28.788 30.9146C28.6139 31.0882 28.5157 31.3238 28.5149 31.5696C28.5219 31.811 28.6227 32.0402 28.7959 32.2085C28.9692 32.3768 29.2011 32.4709 29.4426 32.4709C29.6841 32.4709 29.9161 32.3768 30.0893 32.2085C30.2625 32.0402 30.3634 31.811 30.3704 31.5696C30.3702 31.324 30.2725 31.0884 30.0988 30.9147C29.925 30.741 29.6895 30.6433 29.4438 30.6431ZM36.0199 14.0436H24.4142C24.3524 14.0436 24.293 14.0191 24.2492 13.9753C24.2055 13.9315 24.1809 13.8722 24.1809 13.8103C24.1809 13.7484 24.2055 13.689 24.2492 13.6452C24.293 13.6014 24.3524 13.5769 24.4142 13.5769H36.0199C36.0818 13.5769 36.1412 13.6014 36.185 13.6452C36.2287 13.689 36.2533 13.7484 36.2533 13.8103C36.2533 13.8722 36.2287 13.9315 36.185 13.9753C36.1412 14.0191 36.0818 14.0436 36.0199 14.0436Z" fill="#6230A3"/>
<path d="M24.4143 14.0426C24.3674 14.0425 24.3217 14.0282 24.2831 14.0017C24.2444 13.9753 24.2147 13.9377 24.1976 13.8941C24.1806 13.8505 24.1771 13.8027 24.1876 13.757C24.198 13.7114 24.222 13.6699 24.2564 13.6381L25.7252 12.2844C25.7707 12.2424 25.8311 12.2203 25.893 12.2228C25.9549 12.2253 26.0132 12.2523 26.0552 12.2978C26.0972 12.3434 26.1194 12.4037 26.1169 12.4656C26.1143 12.5275 26.0873 12.5859 26.0418 12.6279L24.5722 13.9815C24.5292 14.0214 24.4729 14.0436 24.4143 14.0438" fill="#6230A3"/>
<path d="M25.8821 15.3989C25.8235 15.3987 25.7672 15.3764 25.7242 15.3366L24.2546 13.9822C24.2321 13.9614 24.2139 13.9363 24.201 13.9085C24.1882 13.8807 24.1809 13.8506 24.1797 13.82C24.1785 13.7894 24.1833 13.7588 24.1939 13.73C24.2045 13.7012 24.2206 13.6749 24.2414 13.6523C24.2622 13.6298 24.2872 13.6116 24.3151 13.5987C24.3429 13.5859 24.373 13.5786 24.4036 13.5774C24.4342 13.5762 24.4648 13.581 24.4936 13.5916C24.5223 13.6022 24.5487 13.6183 24.5712 13.6391L26.0408 14.9943C26.0752 15.0262 26.0992 15.0677 26.1097 15.1135C26.1201 15.1592 26.1166 15.207 26.0994 15.2507C26.0823 15.2944 26.0524 15.3319 26.0136 15.3583C25.9749 15.3847 25.929 15.3989 25.8821 15.3989ZM11.8406 29.5959H0.23338C0.171481 29.5959 0.112121 29.5714 0.0683521 29.5276C0.0245831 29.4838 0 29.4245 0 29.3626C0 29.3007 0.0245831 29.2413 0.0683521 29.1975C0.112121 29.1537 0.171481 29.1292 0.23338 29.1292H11.8406C11.9025 29.1292 11.9619 29.1537 12.0057 29.1975C12.0494 29.2413 12.074 29.3007 12.074 29.3626C12.074 29.4245 12.0494 29.4838 12.0057 29.5276C11.9619 29.5714 11.9025 29.5959 11.8406 29.5959Z" fill="#6230A3"/>
<path d="M11.8403 29.597C11.782 29.5966 11.7259 29.5744 11.6831 29.5347L10.2128 28.1811C10.1887 28.1607 10.1689 28.1357 10.1548 28.1075C10.1406 28.0793 10.1323 28.0486 10.1303 28.0171C10.1284 27.9856 10.1328 27.954 10.1434 27.9243C10.154 27.8946 10.1705 27.8674 10.1919 27.8442C10.2134 27.821 10.2393 27.8025 10.2681 27.7896C10.2969 27.7767 10.328 27.7698 10.3595 27.7693C10.3911 27.7688 10.4224 27.7747 10.4516 27.7866C10.4808 27.7986 10.5073 27.8163 10.5294 27.8388L11.9998 29.1917C12.0342 29.2235 12.0582 29.2651 12.0686 29.3108C12.0791 29.3565 12.0755 29.4044 12.0584 29.448C12.0412 29.4917 12.0113 29.5292 11.9726 29.5556C11.9338 29.5821 11.888 29.5962 11.8411 29.5962" fill="#6230A3"/>
<path d="M10.3722 30.9496C10.3253 30.9495 10.2796 30.9352 10.241 30.9088C10.2023 30.8823 10.1726 30.8448 10.1555 30.8011C10.1385 30.7575 10.135 30.7097 10.1455 30.6641C10.1559 30.6184 10.1799 30.577 10.2143 30.5451L11.6831 29.1899C11.7286 29.1479 11.7889 29.1257 11.8507 29.1282C11.9126 29.1307 11.9709 29.1576 12.0129 29.2031C12.0549 29.2486 12.0771 29.3089 12.0746 29.3708C12.0721 29.4326 12.0452 29.491 11.9997 29.533L10.5301 30.8882C10.4872 30.928 10.4308 30.9502 10.3722 30.9504M23.2055 33.233H5.32318C5.26128 33.233 5.20192 33.2084 5.15815 33.1646C5.11438 33.1208 5.0898 33.0615 5.0898 32.9996C5.0898 32.9377 5.11438 32.8783 5.15815 32.8346C5.20192 32.7908 5.26128 32.7662 5.32318 32.7662H23.2055C23.2674 32.7662 23.3268 32.7908 23.3705 32.8346C23.4143 32.8783 23.4389 32.9377 23.4389 32.9996C23.4389 33.0615 23.4143 33.1208 23.3705 33.1646C23.3268 33.2084 23.2674 33.233 23.2055 33.233ZM28.1697 34.3221H15.793C15.7311 34.3221 15.6718 34.2975 15.628 34.2538C15.5842 34.21 15.5597 34.1506 15.5597 34.0887C15.5597 34.0268 15.5842 33.9675 15.628 33.9237C15.6718 33.8799 15.7311 33.8553 15.793 33.8553H28.1689C28.2308 33.8553 28.2902 33.8799 28.334 33.9237C28.3777 33.9675 28.4023 34.0268 28.4023 34.0887C28.4023 34.1506 28.3777 34.21 28.334 34.2538C28.2902 34.2975 28.2308 34.3221 28.1689 34.3221M30.9828 34.3221H29.4347C29.3728 34.3221 29.3134 34.2975 29.2696 34.2538C29.2259 34.21 29.2013 34.1506 29.2013 34.0887C29.2013 34.0268 29.2259 33.9675 29.2696 33.9237C29.3134 33.8799 29.3728 33.8553 29.4347 33.8553H30.9828C31.0447 33.8553 31.1041 33.8799 31.1479 33.9237C31.1916 33.9675 31.2162 34.0268 31.2162 34.0887C31.2162 34.1506 31.1916 34.21 31.1479 34.2538C31.1041 34.2975 31.0447 34.3221 30.9828 34.3221ZM10.4827 34.2894H4.61912C4.55722 34.2894 4.49786 34.2649 4.45409 34.2211C4.41033 34.1773 4.38574 34.118 4.38574 34.0561C4.38574 33.9942 4.41033 33.9348 4.45409 33.891C4.49786 33.8473 4.55722 33.8227 4.61912 33.8227H10.4827C10.5446 33.8227 10.6039 33.8473 10.6477 33.891C10.6915 33.9348 10.716 33.9942 10.716 34.0561C10.716 34.118 10.6915 34.1773 10.6477 34.2211C10.6039 34.2649 10.5446 34.2894 10.4827 34.2894Z" fill="#6230A3"/>
</svg>
